<?xml version="1.0" standalone="no"?>
<!DOCTYPE svg PUBLIC "-//W3C//DTD SVG 20010904//EN"
 "http://www.w3.org/TR/2001/REC-SVG-20010904/DTD/svg10.dtd">
<svg version="1.0" xmlns="http://www.w3.org/2000/svg"
 width="600.000000pt" height="600.000000pt" viewBox="0 0 600.000000 600.000000"
 preserveAspectRatio="xMidYMid meet">

<g transform="translate(0.000000,600.000000) scale(0.100000,-0.100000)"
fill="#220022" stroke="#FFF">
<path d="M2803 5200 c-333 -38 -610 -177 -869 -435 -215 -214 -361 -459 -452
-760 -127 -415 -118 -853 26 -1330 157 -518 448 -1044 785 -1416 156 -173 288
-279 444 -356 88 -44 101 -47 186 -51 76 -3 104 0 157 18 394 133 908 777
1198 1500 161 402 232 758 219 1105 -11 307 -72 554 -202 820 -233 476 -634
800 -1103 889 -101 19 -294 27 -389 16z m-743 -2482 c114 -24 249 -77 328
-127 123 -80 239 -246 291 -415 25 -81 51 -232 51 -295 l0 -44 -92 6 c-171 11
-362 76 -492 167 -53 36 -134 122 -175 183 -35 52 -80 154 -105 238 -19 67
-46 231 -46 282 l0 38 73 -6 c39 -4 115 -16 167 -27z m2010 -7 c0 -187 -88
-450 -195 -583 -125 -156 -370 -267 -623 -284 l-95 -7 7 79 c10 109 39 235 75
331 115 298 346 451 746 497 85 9 85 9 85 -33z"/>
</g>
</svg>
