<?xml version="1.0" standalone="no"?>
<!DOCTYPE svg PUBLIC "-//W3C//DTD SVG 20010904//EN"
 "http://www.w3.org/TR/2001/REC-SVG-20010904/DTD/svg10.dtd">
<svg version="1.0" xmlns="http://www.w3.org/2000/svg"
 width="5000.000000pt" height="5000.000000pt" viewBox="0 0 5000.000000 5000.000000"
 preserveAspectRatio="xMidYMid meet">
<metadata>
Created by potrace 1.16, written by Peter Selinger 2001-2019
</metadata>
<g transform="translate(0.000000,5000.000000) scale(0.100000,-0.100000)"
fill="#000000" stroke="none">
<path d="M24510 44997 c-3 -2 -93 -7 -200 -11 -286 -10 -931 -58 -1075 -80
-16 -3 -57 -8 -90 -11 -33 -4 -143 -18 -245 -31 -3261 -432 -6286 -1854 -8717
-4100 -214 -198 -742 -729 -932 -939 -2086 -2295 -3429 -5038 -3946 -8055 -71
-420 -120 -792 -160 -1230 -8 -91 -19 -196 -25 -235 -32 -242 -35 -332 -35
-1050 0 -785 5 -942 41 -1415 28 -358 89 -899 129 -1140 7 -47 19 -128 25
-180 6 -52 29 -219 51 -370 321 -2232 966 -4517 1881 -6670 101 -237 310 -708
388 -875 147 -313 252 -530 401 -825 1761 -3501 4241 -6642 7192 -9108 1262
-1056 2624 -1994 4042 -2785 413 -230 1149 -605 1563 -796 l202 -94 193 89
c411 190 1162 573 1572 801 2557 1427 4877 3293 6921 5568 2236 2488 4066
5430 5312 8535 824 2055 1402 4206 1687 6275 20 143 42 307 51 365 55 382 107
822 128 1080 46 567 51 724 51 1575 0 710 -2 776 -35 1020 -6 39 -17 144 -25
235 -38 410 -84 771 -146 1145 -194 1163 -496 2243 -927 3320 -1078 2692
-2897 5062 -5232 6814 -1828 1373 -3905 2326 -6137 2816 -415 91 -974 187
-1358 235 -93 11 -185 23 -202 25 -147 21 -662 65 -998 86 -175 11 -1336 24
-1345 16z m-9705 -16752 c39 -3 149 -13 245 -21 1664 -140 3263 -749 4605
-1754 355 -266 629 -503 966 -840 715 -713 1244 -1444 1693 -2340 258 -516
444 -988 596 -1515 194 -674 295 -1275 346 -2060 9 -139 9 -764 0 -910 -21
-336 -51 -633 -91 -906 l-7 -47 -197 -26 c-207 -28 -443 -52 -601 -61 -52 -3
-129 -8 -171 -11 -216 -15 -961 -2 -1179 21 -25 2 -76 7 -115 10 -77 6 -72 6
-305 35 -836 105 -1691 343 -2495 696 -186 81 -610 297 -810 412 -1568 900
-2824 2237 -3616 3851 -519 1055 -818 2187 -901 3396 -23 342 -14 1052 17
1360 31 305 69 603 79 612 3 4 119 22 231 37 176 23 468 50 720 65 143 9 879
6 990 -4z m21390 3 c303 -17 923 -83 941 -101 13 -13 74 -519 89 -742 27 -380
27 -959 1 -1305 -109 -1448 -529 -2775 -1267 -4003 -796 -1324 -1953 -2446
-3304 -3204 -174 -98 -590 -307 -750 -377 -798 -351 -1660 -592 -2490 -696
-209 -26 -227 -28 -310 -35 -38 -3 -90 -8 -115 -10 -217 -23 -984 -36 -1178
-21 -37 3 -114 8 -172 11 -141 8 -445 39 -639 66 l-158 22 -22 156 c-26 198
-48 392 -56 501 -3 47 -8 99 -10 115 -24 197 -24 1001 0 1270 3 28 10 106 16
175 76 900 304 1814 674 2705 87 210 347 735 471 950 314 546 669 1039 1093
1519 161 183 556 577 741 740 1192 1054 2582 1757 4116 2081 450 95 1011 167
1424 182 91 3 167 8 170 10 8 7 570 0 735 -9z"/>
</g>
</svg>
